# xmcd
#
# Track frame offsets:
#	150
#	12334
#	27302
#	44780
#	59239
#	75872
#	89527
#	105957
#	122270
#	134000
#	147200
#	166470
#	181759
#	196735
#	212250
#	227462
#	239925
#	252990
#
# Disc length: 3570
#
# Revision: 2
# Processed by: cddbd v1.5.1PL0 Copyright (c) Steve Scherf et al.
# Submitted via: ExactAudioCopy v0.90b3
# Normalized: r0:DSETVAR1,TDELIM( - ),TSWAP
#
DISCID=f30df012
DTITLE=Various Artist - Hit Singles (MayPop Music Group) - Disc 2
DYEAR=1900
DGENRE=Country
TTITLE0=Don Williams - NoBody But You
TTITLE1=Reba McEntire - I Know How He Feels
TTITLE2=Earl Thomas Conley - What I'd Say
TTITLE3=Diamond Rio - Mirror Mirror
TTITLE4=Joe Diffie - Ships That Don't Come In
TTITLE5=John Anderson - Money In The Bank
TTITLE6=Doug Stone - Little Houses
TTITLE7=Blackhawk - I Sure Can Smell The Rain
TTITLE8=Mark Chesnutt - Goin' Through The Big D
TTITLE9=Collin Raye - My Kind Of Girl
TTITLE10=John Michael Montgomery - Long As I Live
TTITLE11=Neal McCoy - There Playin' Our Song
TTITLE12=Lorrie Morgan - I Didn't Know My Own Strength
TTITLE13=George Strait - Lead On
TTITLE14=Pam Tillis - Deep Down
TTITLE15=Daryle Singletary - Too Much Fun
TTITLE16=George Strait - Blue Clear Sky
TTITLE17=Tracy Lawrence - Is That A Tear
EXTD=
EXTT0=
EXTT1=
EXTT2=
EXTT3=
EXTT4=
EXTT5=
EXTT6=
EXTT7=
EXTT8=
EXTT9=
EXTT10=
EXTT11=
EXTT12=
EXTT13=
EXTT14=
EXTT15=
EXTT16=
EXTT17=
PLAYORDER=
